<svg xmlns="http://www.w3.org/2000/svg" width="500" height="500" version="1.0" viewBox="0 0 375 375"><defs><clipPath id="a"><path d="M54.809 36.086h265.5V339h-265.5Zm0 0"/></clipPath></defs><path fill="#fff" d="M273.52 137.793c-.54-.988-1.243-1.965-2.715-2.707l-21.016-12.137a3.662 3.662 0 0 0-.93-.379c-.105-.023-.207-.023-.324-.043-.215-.035-.433-.074-.652-.074h-.04v.008a3.707 3.707 0 0 0-1.773.488l-47.28 27.305-.044-.086-3.816 2.21a14.877 14.877 0 0 1-14.864 0l-20.671-11.933a3.722 3.722 0 0 1-1.852-3.218c0-1.329.707-2.555 1.852-3.223l20.671-11.922a14.858 14.858 0 0 1 14.864 0l4.976 2.871c1.153.66 2.563.66 3.711 0l19.25-11.11a3.712 3.712 0 0 0 1.86-3.218 3.712 3.712 0 0 0-1.86-3.219L194.93 91.273a14.877 14.877 0 0 0-14.864 0l-68.441 39.516c-4.957 2.863-4.957 10.008 0 12.871l68.441 39.516a14.877 14.877 0 0 0 14.864 0l52.914-30.551v69.59l-17.004 9.851-35.91 20.793a15.227 15.227 0 0 1-3.618 1.493 14.893 14.893 0 0 1-11.246-1.493l-49.199-28.402a7.426 7.426 0 0 1-3.715-6.437v-40.567c0-1.328-.71-2.558-1.859-3.215l-19.246-11.12a3.713 3.713 0 0 0-5.57 3.222v67.082a7.439 7.439 0 0 0 3.714 6.437l75.875 43.809a14.892 14.892 0 0 0 7.329 1.98h.05c.364 0 .727-.039 1.09-.062.281-.02.559-.02.84-.05.383-.052.766-.145 1.14-.22.258-.062.52-.093.766-.156.414-.101.809-.258 1.203-.402.23-.082.446-.137.653-.219.613-.246 1.215-.539 1.785-.871l65.465-37.797 10.375-5.887a7.427 7.427 0 0 0 3.765-6.457v-92.015a7.433 7.433 0 0 0-1.007-3.719"/><g clip-path="url(#a)"><path fill="#fff" d="M194.746 69.05a14.77 14.77 0 0 0-7.246-1.976 14.77 14.77 0 0 0-7.246 1.977l-91.43 52.789a14.832 14.832 0 0 0-7.414 12.836v105.582a14.8 14.8 0 0 0 7.414 12.832l91.43 52.789a14.808 14.808 0 0 0 7.348 1.988 14.926 14.926 0 0 0 7.359-1.98l91.031-52.559a14.812 14.812 0 0 0 7.41-12.832v-30.508a3.695 3.695 0 0 1 1.848-3.215l19.383-11.183a3.69 3.69 0 0 1 3.703 0 3.704 3.704 0 0 1 1.855 3.21v56.821a14.896 14.896 0 0 1-1.753 6.945c-.29 1.399-1.813 3.047-3.97 4.739-.042.039-.105.082-.156.125-5.472 4.257-14.535 8.656-16.14 9.586l-103.211 59.59a14.966 14.966 0 0 1-7.61 1.976h-.113v-.008a14.772 14.772 0 0 1-6.984-1.969L62.219 268.453a14.804 14.804 0 0 1-7.41-12.832v-136.3c0-2.38.3-4.801 1.343-6.856.145-.531 1.575-3.149 4.524-5.305 1.11-.746 3.074-1.754 4.914-2.816l114.332-66.008a14.824 14.824 0 0 1 7.578-1.977 14.756 14.756 0 0 1 7.578 1.977l105.5 60.902c.238.149.426.32.633.489l1.336.765c3.586 1.903 9.207 4.801 12.254 7.117l.25.188c.039.031.082.058.12.086.106.09.18.18.282.273a12.862 12.862 0 0 1 2.809 3.266c.023.016.031.039.054.058h-.011a13.25 13.25 0 0 1 1.886 6.813v49.906a3.71 3.71 0 0 1-1.855 3.215l-19.387 11.195a3.74 3.74 0 0 1-3.699 0 3.703 3.703 0 0 1-1.855-3.214v-45.008c0-5.301-2.832-10.2-7.422-12.844l-91.227-52.492v.004Zm0 0"/></g></svg>